<svg width="15" height="15" viewBox="0 0 15 15" fill="none" xmlns="http://www.w3.org/2000/svg">
<path fill-rule="evenodd" clip-rule="evenodd" d="M4.44334 5.1839C4.44334 2.32091 6.76425 0 9.62724 0C12.4902 0 14.8111 2.32091 14.8111 5.1839C14.8111 8.04689 12.4902 10.3678 9.62724 10.3678H8.14613V11.8489H6.66501V13.33H5.1839V14.8111H0V10.8016L4.55295 6.24866C4.48033 5.9011 4.44334 5.54478 4.44334 5.1839ZM6.66484 8.88671H9.62707C11.6721 8.88671 13.3299 7.22892 13.3299 5.18392C13.3299 3.13893 11.6721 1.48114 9.62707 1.48114C7.58208 1.48114 5.92429 3.13893 5.92429 5.18392C5.92429 5.55319 5.97812 5.91439 6.08282 6.25985L6.21154 6.68453L1.48095 11.4151V13.33H3.70262V11.8489H5.18373V10.3678H6.66484V8.88671ZM8.1459 5.1839C8.1459 6.0019 8.80902 6.66502 9.62701 6.66502C10.445 6.66502 11.1081 6.0019 11.1081 5.1839C11.1081 4.36591 10.445 3.70279 9.62701 3.70279C8.80902 3.70279 8.1459 4.36591 8.1459 5.1839Z" fill="#EC5732"/>
</svg>
