<svg width="17" height="14" viewBox="0 0 17 14" fill="none" xmlns="http://www.w3.org/2000/svg">
<path fill-rule="evenodd" clip-rule="evenodd" d="M14.8111 1.48111C15.6291 1.48111 16.2923 2.14423 16.2923 2.96223V11.8489C16.2923 12.6669 15.6291 13.33 14.8111 13.33H1.48111C0.663117 13.33 0 12.6669 0 11.8489V1.48111C0 0.663117 0.663117 0 1.48111 0H5.92446C6.75388 0 7.28185 0.352099 7.81212 1.02112C7.82679 1.03963 7.86255 1.08572 7.90216 1.13675L7.90217 1.13677C7.95805 1.20879 8.02158 1.29065 8.04429 1.3188C8.06724 1.34725 8.0866 1.37079 8.10259 1.39025L8.1026 1.39026C8.16773 1.46947 8.17717 1.48095 8.14745 1.48111H14.8111ZM14.8112 4.44335V2.96224L8.14218 2.96223C7.61035 2.95938 7.26391 2.71038 6.89152 2.24874C6.85778 2.20692 6.7758 2.10124 6.71627 2.02451L6.71615 2.02435C6.68506 1.98427 6.66011 1.95212 6.6514 1.94113C6.37401 1.59115 6.20903 1.48113 5.92448 1.48113H1.48113V4.44335H14.8112ZM14.8112 5.92447H1.48113V11.8489H14.8112V5.92447Z" fill="#EC5732"/>
</svg>
