<svg width="88" height="64" viewBox="0 0 88 64" fill="none" xmlns="http://www.w3.org/2000/svg">
<path d="M51.2936 6.81764L51.9515 9.79753L53.1539 9.88783C53.29 10.1136 53.4261 10.3168 53.6076 10.5199L53.2673 11.6938L55.8536 13.3418L56.7837 12.5517C57.0333 12.6194 57.2828 12.6645 57.555 12.6871L58.1449 13.7481L61.1395 13.0935L61.2302 11.897C61.4571 11.7616 61.6613 11.6261 61.8654 11.4455L63.0451 11.7841L64.7012 9.21058L63.9072 8.28501C63.9753 8.03668 64.0206 7.78836 64.0433 7.51746L65.1096 6.93051L64.4517 3.95062L63.2493 3.86032C63.1132 3.63457 62.9771 3.43139 62.7956 3.22822L63.1359 2.05432L60.5496 0.406349L59.6195 1.19647C59.3699 1.12875 59.1204 1.0836 58.8482 1.06102L58.2583 0L55.2637 0.654674L55.173 1.85115C54.9461 1.9866 54.7419 2.12205 54.5378 2.30265L53.3581 1.96402L51.702 4.53757L52.496 5.46314C52.4279 5.71146 52.3826 5.95979 52.3599 6.23069L51.2936 6.81764ZM53.7437 7.11111L53.7664 6.70476C53.7891 6.29841 53.8572 5.89206 53.9706 5.53086L54.1067 5.14709L53.4942 4.44727L53.9933 3.67972L54.9007 3.92804L55.1957 3.65714C55.4906 3.38624 55.8309 3.16049 56.1939 2.97989L56.5568 2.79929L56.6249 1.87372L57.5097 1.67055L57.9634 2.48325L58.3717 2.50582C58.7801 2.5284 59.1884 2.59612 59.5514 2.70899L59.9371 2.84444L60.6404 2.23492L61.4117 2.73157L61.1622 3.63457L61.4344 3.92804C61.7066 4.22152 61.9335 4.56014 62.115 4.92134L62.2965 5.28254L63.2266 5.35026L63.4308 6.23069L62.6141 6.68219L62.5914 7.08854C62.5687 7.49488 62.5006 7.90123 62.3872 8.26243L62.2511 8.64621L62.8636 9.34603L62.3645 10.1136L61.4571 9.86526L61.1622 10.1362C60.8672 10.4071 60.5269 10.6328 60.164 10.8134L59.801 10.994L59.7329 11.9196L58.8482 12.1228L58.3944 11.3101L57.9861 11.2875C57.5777 11.2649 57.1694 11.1972 56.8064 11.0843L56.4207 10.9489L55.7175 11.5584L54.9461 11.0617L55.1957 10.1587L54.9234 9.86526C54.6512 9.57178 54.4243 9.23316 54.2428 8.87196L54.0614 8.51076L53.1312 8.44303L52.927 7.56261L53.7437 7.11111ZM58.5532 8.51076C59.4607 8.30758 60.0278 7.42716 59.8237 6.52416C59.6195 5.62116 58.7347 5.05679 57.8273 5.25996C56.9198 5.46314 56.3527 6.34356 56.5568 7.24656C56.761 8.12698 57.6458 8.69136 58.5532 8.51076ZM34.778 57.1598C34.778 58.582 34.0974 59.8011 31.8061 59.8011C29.5148 59.8011 28.8342 58.582 28.8342 57.1598V44.7661H24.5012V57.5436C24.5012 61.5845 27.6319 64 31.8061 64C35.9804 64 39.1111 61.5845 39.1111 57.5436V44.7661H34.778V57.1598ZM10.5491 55.0152L3.24414 44.7887H0V63.6388H4.33308V53.4123L11.6381 63.6388H14.8822V44.7887H10.5491V55.0152ZM9.48286 28.467L4.33308 20.0917H0V38.9418H4.33308V27.9704L9.23331 35.9619H9.70972L14.61 27.9704V38.9418H18.943V20.0917H14.61L9.48286 28.467ZM59.2792 51.3806L58.1903 53.1414L57.1013 51.3806L53.0405 44.7661H48.7074V63.6162H53.0405V52.6448L57.9407 60.6363H58.4398L63.34 52.6448V63.6162H67.6731V44.7661H63.34L59.2792 51.3806ZM33.3034 31.4469H40.0639V27.3608H33.3034V24.2455H40.7445V20.0917H28.9704V38.9418H40.8806V34.788H33.3034V31.4469ZM66.9698 25.7806C70.8038 24.1552 75.8175 21.9203 78.4037 20.2723C78.9482 19.9111 79.4019 19.5951 79.6741 19.3016C82.4646 16.5249 82.4646 11.9873 79.6741 9.21058C78.313 7.85608 76.5208 7.11111 74.6151 7.11111C72.7095 7.11111 70.8946 7.85608 69.5561 9.21058C69.3519 9.41376 69.125 9.68466 68.8982 10.0233C67.2648 12.3034 64.9508 17.3827 63.2493 21.3785C61.8654 20.5432 60.2547 20.0691 58.4852 20.0691H50.908V38.9192H58.4852C63.703 38.9192 67.6958 34.8332 67.6958 29.4829C67.6731 28.1735 67.4236 26.9319 66.9698 25.7806ZM58.4625 34.788H55.2184V24.2229H58.4625C59.7102 24.2229 60.7765 24.5841 61.6159 25.2388C61.321 25.9838 61.0941 26.5256 61.0033 26.7739L60.3228 28.4896L62.0469 27.8123C62.2511 27.7446 62.6368 27.5866 63.1585 27.3834C63.3854 28.0155 63.5215 28.7379 63.5215 29.528C63.4988 32.7337 61.4571 34.788 58.4625 34.788ZM63.1812 25.6226C65.0188 21.1527 68.3991 13.3418 70.2367 10.8586C70.3955 10.6554 70.5316 10.4748 70.6677 10.3619C71.7113 9.32346 73.1178 8.73651 74.5924 8.73651C76.0897 8.73651 77.4736 9.30088 78.5171 10.3619C80.695 12.5291 80.6723 16.0282 78.5171 18.1954C78.313 18.3986 78.018 18.6243 77.6551 18.8501C74.8647 20.7238 67.4916 23.8843 63.1812 25.6226ZM72.596 12.3937C72.5733 12.4388 72.528 12.4614 72.5053 12.5065C71.5298 13.5901 71.5525 15.2607 72.596 16.2991C73.5942 17.2924 75.1596 17.3601 76.2485 16.5474C76.3393 16.4797 76.43 16.412 76.5208 16.3217C77.587 15.2607 77.6097 13.4998 76.5208 12.4162C75.4318 11.3326 73.6623 11.3326 72.596 12.3937ZM88 39.5739C87.8412 37.6325 86.117 36.1425 84.1206 36.3231C83.9845 36.3231 83.8484 36.3457 83.7123 36.3908L82.5099 34.3139C82.7368 34.1333 82.9637 33.9076 83.1678 33.6818C84.0072 32.6885 84.4156 31.4243 84.3021 30.115C84.0753 27.4737 81.6932 25.4194 78.9936 25.6451C76.2939 25.8709 74.2748 28.2413 74.5017 30.9277C74.7058 33.4335 76.861 35.4201 79.4019 35.4201C79.538 35.4201 79.6741 35.4201 79.8103 35.3975C80.3094 35.3524 80.7858 35.2395 81.2395 35.0589L82.3511 36.9778C82.1016 37.1584 81.852 37.3616 81.6479 37.6099C81.0353 38.3323 80.7404 39.2578 80.8085 40.206C80.8311 40.4543 80.8765 40.6801 80.9446 40.9058L77.8366 41.8765C77.3375 41.0638 76.4073 40.5446 75.3864 40.6349C73.9572 40.7478 72.8683 42.012 73.0044 43.4568C73.1178 44.7887 74.2748 45.8497 75.6133 45.8497C75.6814 45.8497 75.7721 45.8497 75.8402 45.8497C76.5434 45.782 77.1787 45.466 77.6324 44.9242C78.0407 44.4501 78.2449 43.8857 78.2449 43.2762L81.6479 42.2152C82.3057 43.0053 83.3039 43.5019 84.3929 43.5019C84.4836 43.5019 84.5971 43.5019 84.6878 43.4794C85.6406 43.3891 86.5027 42.9601 87.1379 42.2152C87.7731 41.4476 88.0681 40.522 88 39.5739ZM76.5208 43.9309C76.3166 44.1566 76.0443 44.3146 75.7267 44.3372C75.0915 44.3824 74.5244 43.9083 74.479 43.2762C74.4336 42.6441 74.91 42.0797 75.5452 42.012C75.5679 42.012 75.6133 42.012 75.636 42.012C76.2258 42.012 76.7476 42.4861 76.793 43.073C76.8157 43.4116 76.7249 43.7051 76.5208 43.9309ZM82.0562 32.7111C81.4664 33.4109 80.627 33.8399 79.6968 33.9302C77.7912 34.0882 76.1124 32.6434 75.9536 30.7922C75.7948 28.8959 77.2013 27.2254 79.107 27.0674C79.1977 27.0674 79.3112 27.0448 79.4019 27.0448C81.1941 27.0448 82.6914 28.4219 82.8502 30.2053C82.941 31.1083 82.646 32.0113 82.0562 32.7111ZM86.049 41.2444C85.686 41.6734 85.1642 41.9443 84.5971 41.9894C83.4174 42.0797 82.3965 41.1993 82.2831 40.048C82.2377 39.4836 82.4192 38.9418 82.7822 38.4903C83.1451 38.0614 83.6669 37.7905 84.2341 37.7453C84.3021 37.7453 84.3475 37.7453 84.4156 37.7453C85.5045 37.7453 86.4573 38.6032 86.5481 39.6868C86.5935 40.2511 86.412 40.7929 86.049 41.2444ZM45.486 14.1771H41.5385V10.2716H43.5122V8.80423H40.0866V15.6219H46.9379V12.2131H45.486V14.1771ZM44.4197 9.36861H45.3498L42.9905 11.7164L44.0113 12.7323L46.3934 10.3845V11.3101H47.8453V7.90123H44.4197V9.36861ZM46.3934 9.36861V9.43633L46.3253 9.36861H46.3934Z" fill="url(#paint0_radial)"/>
<defs>
<radialGradient id="paint0_radial" cx="0" cy="0" r="1" gradientUnits="userSpaceOnUse" gradientTransform="translate(58.5654 29.1458) scale(29.5962 29.451)">
<stop stop-color="#E7411B"/>
<stop offset="0.2264" stop-color="#E6411D"/>
<stop offset="0.3626" stop-color="#E14022"/>
<stop offset="0.475" stop-color="#D7402A"/>
<stop offset="0.5744" stop-color="#CB3F34"/>
<stop offset="0.6652" stop-color="#BA3E3F"/>
<stop offset="0.7498" stop-color="#A33D4C"/>
<stop offset="0.8297" stop-color="#883B59"/>
<stop offset="0.9057" stop-color="#653966"/>
<stop offset="0.9761" stop-color="#3B3571"/>
<stop offset="1" stop-color="#283475"/>
</radialGradient>
</defs>
</svg>
