<svg xmlns="http://www.w3.org/2000/svg" xmlns:xlink="http://www.w3.org/1999/xlink" width="160" height="116.925" viewBox="0 0 160 116.925"><defs><style>.a{fill:#1d2b7d;}.b{fill:url(#a);}</style><radialGradient id="a" cx="0.665" cy="0.455" r="0.46" gradientTransform="translate(0.135) scale(0.731 1)" gradientUnits="objectBoundingBox"><stop offset="0" stop-color="#ff481b"></stop><stop offset="0.235" stop-color="#fc481c"></stop><stop offset="0.377" stop-color="#f44720"></stop><stop offset="0.494" stop-color="#e64526"></stop><stop offset="0.597" stop-color="#d1422f"></stop><stop offset="0.691" stop-color="#b73f3a"></stop><stop offset="0.779" stop-color="#973b48"></stop><stop offset="0.862" stop-color="#703659"></stop><stop offset="0.939" stop-color="#45306c"></stop><stop offset="1" stop-color="#1d2b7d"></stop></radialGradient></defs><path class="a" d="M27.032,49.437H22.7V40.9H22v9.2h5.032Zm5.4-1.691h4.619l.907,2.351H38.7l-3.547-9.2h-.784l-3.588,9.2h.742Zm2.31-5.98,2.062,5.32H32.723Z" transform="translate(-12.926 -24.032)"></path><path class="b" d="M93.251,12.455l1.2,5.444,2.186.165a7.385,7.385,0,0,0,.825,1.155l-.619,2.145,4.7,3.011,1.691-1.444a7.66,7.66,0,0,0,1.4.247l1.072,1.938,5.444-1.2.165-2.186a7.386,7.386,0,0,0,1.155-.825l2.145.619,3.011-4.7-1.444-1.691a7.661,7.661,0,0,0,.247-1.4l1.938-1.072-1.2-5.444-2.186-.165a7.387,7.387,0,0,0-.825-1.155l.619-2.145-4.7-3.011-1.691,1.444a7.661,7.661,0,0,0-1.4-.247L105.913,0l-5.444,1.2L100.3,3.382a7.387,7.387,0,0,0-1.155.825L97,3.588l-3.011,4.7,1.444,1.691a7.661,7.661,0,0,0-.247,1.4Zm4.454.536.041-.742a8.971,8.971,0,0,1,.371-2.145l.247-.7L97.252,8.125l.907-1.4,1.65.454.536-.495a7.844,7.844,0,0,1,1.815-1.237l.66-.33.124-1.691,1.608-.371.825,1.485.742.041a8.971,8.971,0,0,1,2.145.371l.7.247,1.279-1.114,1.4.907-.454,1.65.495.536a7.844,7.844,0,0,1,1.237,1.815l.33.66,1.691.124.371,1.608-1.485.825-.041.742a8.97,8.97,0,0,1-.371,2.145l-.247.7,1.114,1.279-.907,1.4-1.65-.454-.536.495a7.844,7.844,0,0,1-1.815,1.237l-.66.33-.124,1.691-1.608.371-.825-1.485-.742-.041a8.971,8.971,0,0,1-2.145-.371l-.7-.247-1.279,1.114-1.4-.907.454-1.65-.495-.536a7.844,7.844,0,0,1-1.237-1.815l-.33-.66-1.691-.124-.371-1.608Zm8.744,2.557a3.042,3.042,0,1,0-3.629-2.31A3.092,3.092,0,0,0,106.449,15.549ZM63.226,104.428c0,2.6-1.237,4.825-5.4,4.825s-5.4-2.227-5.4-4.825V81.785H44.543v23.344c0,7.383,5.692,11.8,13.28,11.8s13.28-4.413,13.28-11.8V81.785H63.226v22.643ZM19.178,100.51,5.9,81.827H0v34.438H7.877V97.582l13.28,18.683h5.9V81.827H19.178Zm-1.938-48.5-9.362-15.3H0V71.145H7.877V51.1l8.909,14.6h.866l8.909-14.6V71.145h7.877V36.706H26.561ZM107.769,93.87l-1.98,3.217-1.98-3.217L96.427,81.785H88.549v34.438h7.877V96.179l8.909,14.6h.907l8.909-14.6v20.044h7.877V81.785h-7.877ZM60.545,57.452h12.29V49.987H60.545V44.3H74.073V36.706H52.668V71.145H74.32V63.556H60.545v-6.1ZM121.75,47.1c6.97-2.97,16.085-7.053,20.787-10.063a13.742,13.742,0,0,0,2.31-1.773,13.069,13.069,0,0,0,0-18.436,12.945,12.945,0,0,0-18.394,0,9.793,9.793,0,0,0-1.2,1.485c-2.97,4.166-7.176,13.445-10.27,20.745h0a16.539,16.539,0,0,0-8.661-2.392H92.55V71.1h13.775c9.486,0,16.745-7.465,16.745-17.24a19.354,19.354,0,0,0-1.32-6.764ZM106.284,63.556h-5.9v-19.3h5.9a9.1,9.1,0,0,1,5.733,1.856c-.536,1.361-.949,2.351-1.114,2.8l-1.237,3.134,3.134-1.237c.371-.124,1.072-.412,2.021-.784a11.641,11.641,0,0,1,.66,3.918C115.44,59.8,111.728,63.556,106.284,63.556Zm8.579-16.745c3.341-8.166,9.486-22.436,12.827-26.973a6.212,6.212,0,0,1,.784-.907,10.084,10.084,0,0,1,7.135-2.97,9.846,9.846,0,0,1,7.135,2.97,10.144,10.144,0,0,1,0,14.311,9.043,9.043,0,0,1-1.567,1.2C136.1,37.861,122.7,43.635,114.862,46.811Zm17.116-24.169c-.041.082-.124.124-.165.206a5.042,5.042,0,0,0,6.805,7.383,4.37,4.37,0,0,0,.495-.412,5.06,5.06,0,0,0-7.135-7.176Zm28,49.657a6.5,6.5,0,0,0-7.053-5.939,2.336,2.336,0,0,0-.742.124L150,62.69a10.485,10.485,0,0,0,1.2-1.155,8.872,8.872,0,0,0,2.062-6.516,8.939,8.939,0,1,0-8.909,9.692,4.483,4.483,0,0,0,.742-.041,9.2,9.2,0,0,0,2.6-.619l2.021,3.506a6.753,6.753,0,0,0-1.279,1.155,6.59,6.59,0,0,0-1.526,4.743,6.381,6.381,0,0,0,.247,1.279l-5.65,1.773a4.746,4.746,0,0,0-8.785,2.887,4.823,4.823,0,0,0,4.743,4.372h.412a4.777,4.777,0,0,0,3.258-1.691,4.538,4.538,0,0,0,1.114-3.011l6.186-1.938a6.492,6.492,0,0,0,4.99,2.351,2.352,2.352,0,0,0,.536-.041,6.57,6.57,0,0,0,4.454-2.31A6.757,6.757,0,0,0,159.983,72.3Zm-20.869,7.96A2.149,2.149,0,0,1,137.67,81a2.12,2.12,0,0,1-2.268-1.938,2.184,2.184,0,0,1,1.938-2.31h.165a2.142,2.142,0,0,1,2.1,1.938A2.061,2.061,0,0,1,139.113,80.259Zm10.063-20.5a6.293,6.293,0,1,1-5.362-10.311c.165,0,.371-.041.536-.041a6.319,6.319,0,0,1,6.269,5.774A6.189,6.189,0,0,1,149.177,59.761Zm7.259,15.59a3.855,3.855,0,0,1-2.64,1.361,3.942,3.942,0,0,1-4.207-3.547,4.007,4.007,0,0,1,.907-2.846,3.855,3.855,0,0,1,2.64-1.361h.33a3.931,3.931,0,0,1,3.877,3.547A4.007,4.007,0,0,1,156.436,75.351ZM82.693,25.9H75.516V18.766H79.1V16.085H72.877V28.54H85.332V22.313h-2.64Zm-1.938-8.785h1.691l-4.289,4.289,1.856,1.856,4.331-4.289v1.691h2.64V14.435H80.754v2.681Zm3.588,0v.124l-.124-.124Z"></path></svg>