<svg width="22" height="20" viewBox="0 0 22 20" fill="none" xmlns="http://www.w3.org/2000/svg">
<path fill-rule="evenodd" clip-rule="evenodd" d="M2.41888 9C2.41888 5.13401 5.78692 2 9.94161 2C14.0963 2 17.4643 5.13401 17.4643 9C17.4643 10.8859 16.6628 12.5977 15.3595 13.8564C15.3227 13.8827 15.2873 13.9115 15.2536 13.9429C15.2199 13.9743 15.1889 14.0072 15.1606 14.0414C13.8079 15.2542 11.9684 16 9.94161 16C5.78692 16 2.41888 12.866 2.41888 9ZM15.9788 16.0319C14.3241 17.2635 12.2253 18 9.94161 18C4.59987 18 0.269531 13.9706 0.269531 9C0.269531 4.02944 4.59987 0 9.94161 0C15.2833 0 19.6137 4.02944 19.6137 9C19.6137 11.125 18.8222 13.078 17.4986 14.6177L21.4483 18.2929C21.868 18.6834 21.868 19.3166 21.4483 19.7071C21.0286 20.0976 20.3481 20.0976 19.9284 19.7071L15.9788 16.0319Z" fill="#1E2C78" fill-opacity="0.5"/>
</svg>
